<?xml version="1.0" standalone="no"?>
<!DOCTYPE svg PUBLIC "-//W3C//DTD SVG 20010904//EN"
 "http://www.w3.org/TR/2001/REC-SVG-20010904/DTD/svg10.dtd">
<svg version="1.0" xmlns="http://www.w3.org/2000/svg"
 width="512.000000pt" height="512.000000pt" viewBox="0 0 512.000000 512.000000"
 preserveAspectRatio="xMidYMid meet">
<metadata>
Created by potrace 1.14, written by Peter Selinger 2001-2017
</metadata>
<g transform="translate(0.000000,512.000000) scale(0.100000,-0.100000)"
fill="#000000" stroke="none">
<path d="M0 2560 l0 -2560 2560 0 2560 0 0 2560 0 2560 -2560 0 -2560 0 0
-2560z m2335 1610 c112 -7 132 -11 146 -29 21 -25 32 -98 23 -146 -6 -36 -129
-229 -285 -451 -98 -138 -159 -253 -159 -297 0 -65 63 -127 142 -141 21 -4 92
-11 159 -15 149 -11 165 -20 195 -112 l21 -64 8 35 c4 19 16 52 27 73 34 68
39 127 48 532 9 397 19 524 46 576 11 22 24 29 61 36 71 12 1013 8 1111 -4 46
-6 86 -14 90 -18 9 -8 9 -341 1 -349 -3 -4 -60 -17 -125 -31 -123 -25 -148
-39 -142 -80 2 -12 17 -24 43 -33 79 -27 114 -45 119 -59 12 -29 18 -182 11
-247 -8 -83 -20 -97 -114 -125 -39 -12 -71 -25 -71 -30 0 -4 5 -22 11 -39 12
-35 46 -49 189 -77 47 -9 89 -21 95 -26 12 -12 19 -263 8 -314 -10 -45 -13
-46 -188 -79 -111 -21 -131 -34 -137 -82 -4 -36 -3 -38 55 -73 131 -80 185
-119 248 -181 81 -81 128 -158 171 -281 32 -93 32 -96 33 -284 0 -216 -14
-287 -82 -420 -54 -104 -174 -220 -284 -274 -144 -71 -214 -85 -434 -85 -168
-1 -200 2 -275 22 -148 40 -241 92 -340 191 -108 106 -156 198 -196 371 -44
193 -51 215 -76 228 -49 24 -59 19 -126 -58 -127 -149 -130 -190 -27 -435 110
-262 116 -283 70 -285 -5 0 -75 -5 -155 -10 -177 -11 -322 -1 -350 25 -10 9
-50 67 -87 127 -95 153 -119 178 -175 178 -81 0 -96 -24 -123 -195 -9 -56 -22
-107 -31 -115 -12 -12 -52 -15 -229 -15 -136 0 -218 4 -224 10 -31 31 -36 134
-36 755 0 655 2 687 44 709 9 5 46 14 81 21 122 21 170 39 180 66 21 54 15 62
-62 84 -40 12 -90 26 -110 32 -42 12 -48 26 -48 111 0 78 14 104 237 436 103
152 197 299 210 326 28 61 29 110 4 151 -23 38 -59 48 -244 68 -71 7 -134 19
-140 25 -14 14 -23 239 -12 308 6 39 9 43 41 49 111 21 918 31 1159 14z"/>
<path d="M2556 2827 c-22 -95 -39 -132 -65 -147 -11 -5 -52 -14 -93 -20 -154
-21 -195 -31 -229 -59 -43 -36 -45 -81 -3 -113 138 -109 204 -189 266 -325 38
-86 44 -93 75 -99 42 -8 59 6 120 98 64 97 162 198 269 279 84 63 94 74 94
102 0 39 -23 75 -56 87 -13 5 -65 17 -116 25 -109 19 -131 35 -148 106 -10 42
-69 137 -70 113 -1 -5 -6 1 -13 13 -11 20 -14 14 -31 -60z"/>
<path d="M3320 2051 c-122 -40 -181 -129 -188 -287 -8 -171 35 -273 137 -326
105 -55 236 -25 302 67 55 77 73 220 46 352 -25 118 -104 191 -214 199 -32 2
-69 0 -83 -5z"/>
</g>
</svg>
